<svg width="69" height="69" viewBox="0 0 69 69" fill="none" xmlns="http://www.w3.org/2000/svg">
<g clip-path="url(#clip0_312_10928)">
<path d="M34.5 69C53.5538 69 69 53.5538 69 34.5C69 15.4462 53.5538 0 34.5 0C15.4462 0 0 15.4462 0 34.5C0 53.5538 15.4462 69 34.5 69Z" fill="#00D4D5"/>
<path d="M35.6191 10.7812V22.5479L45.8355 16.6721L35.6191 10.7812Z" fill="white"/>
<path opacity="0.9" d="M45.8354 16.6697V28.4363L56.0496 22.5455L45.8354 16.6697Z" fill="white"/>
<path opacity="0.8" d="M35.6191 22.5479V34.3145L45.8355 28.4387L35.6191 22.5479ZM45.8355 28.4409V40.2054L56.0496 34.3145L45.8355 28.4409Z" fill="white"/>
<path opacity="0.8" d="M35.6191 34.3147V46.0814L45.8355 40.2056L35.6191 34.3147Z" fill="white"/>
<path d="M45.8354 40.2031V51.9698L56.0496 46.0789L45.8354 40.2031Z" fill="white"/>
<path opacity="0.4" d="M9.21387 22.1519V33.9185L19.4302 28.0276L9.21387 22.1519Z" fill="white"/>
<path opacity="0.2" d="M22.1016 26.5242V38.2908L32.3006 32.415L22.1016 26.5242Z" fill="white"/>
<path opacity="0.3" d="M14.5288 33.969V45.7356L24.743 39.8448L14.5288 33.969Z" fill="white"/>
<path opacity="0.9" d="M21.2603 42.8469V54.6136L31.4593 48.7227L21.2603 42.8469Z" fill="white"/>
<path opacity="0.7" d="M35.5352 47.9099V59.6787L45.7342 53.7857L35.5352 47.9099Z" fill="white"/>
<path opacity="0.9" d="M23.8027 20.7126V32.4815L34.0018 26.6057L23.8027 20.7126Z" fill="white"/>
<path opacity="0.8" d="M35.6191 10.7812V22.5479L25.4028 16.6721L35.6191 10.7812Z" fill="white"/>
<path opacity="0.6" d="M23.8029 15.7842V27.5487L13.5845 21.6578L23.8029 15.7842Z" fill="white"/>
<path opacity="0.6" d="M34.019 21.6047V33.3735L23.8027 27.4805L34.019 21.6047Z" fill="white"/>
<path opacity="0.95" d="M22.0542 26.5242V38.2908L11.8379 32.415L22.0542 26.5242Z" fill="white"/>
<path opacity="0.6" d="M35.619 34.3147V46.0814L25.4199 40.2056L35.619 34.3147Z" fill="white"/>
<path opacity="0.55" d="M14.5288 37.0527V48.8194L4.3125 42.9264L14.5288 37.0527Z" fill="white"/>
<path d="M56.0496 22.5479V34.3145L45.8354 28.4387L56.0496 22.5479Z" fill="white"/>
<path opacity="0.95" d="M45.8355 28.4434V40.2079L35.6191 34.317L45.8355 28.4434Z" fill="white"/>
<path opacity="0.9" d="M56.0496 34.3147V46.0814L45.8354 40.2056L56.0496 34.3147Z" fill="white"/>
<path opacity="0.7" d="M45.8355 40.2031V51.9698L35.6191 46.0789L45.8355 40.2031Z" fill="white"/>
<path opacity="0.4" d="M33.3572 45.1118V56.8785L23.1431 51.0027L33.3572 45.1118Z" fill="white"/>
<path d="M45.8355 16.6697V28.4363L35.6191 22.5455L45.8355 16.6697Z" fill="white"/>
</g>
<defs>
<clipPath id="clip0_312_10928">
<rect width="69" height="69" fill="white"/>
</clipPath>
</defs>
</svg>
